# xmcd
#
# Track frame offsets:
#	750
#	17616
#	36697
#	53657
#	71368
#	87634
#	105534
#	123405
#	140162
#	156975
#	173025
#	189552
#	221742
#
# Disc length: 2964 seconds
#
# Revision: 1
# Processed by: cddbd v1.5.2PL0 Copyright (c) Steve Scherf et al.
# Submitted via: audiograbber 1.83.01
#
DISCID=be0b8a0d
DTITLE=тассиос циаммгс [2002]  - циа сема
DYEAR=2002
DGENRE=
TTITLE0=лоу та пгяес ока
TTITLE1=циа сема
TTITLE2=ам се хулгхы
TTITLE3=лг лоу кес
TTITLE4=айола с' ацапаы
TTITLE5=оуяамио тоно
TTITLE6=алаятыкг
TTITLE7=стацома стом ыйеамо
TTITLE8=асе ле соу кеы
TTITLE9=миысе ле
TTITLE10=памта глоум ломос
TTITLE11=де лпояы ма то пистеьы
TTITLE12=Data Track
EXTD=
EXTT0=
EXTT1=
EXTT2=
EXTT3=
EXTT4=
EXTT5=
EXTT6=
EXTT7=
EXTT8=
EXTT9=
EXTT10=
EXTT11=
EXTT12=
PLAYORDER=
